<?xml version="1.0" encoding="UTF-8"?>
<!DOCTYPE svg PUBLIC "-//W3C//DTD SVG 1.1//EN" "http://www.w3.org/Graphics/SVG/1.1/DTD/svg11.dtd">
<svg version="1.1" xmlns="http://www.w3.org/2000/svg" xmlns:xlink="http://www.w3.org/1999/xlink" width="512" height="384"  xml:space="preserve" id="canvas1">
    <!-- Generated by PaintCode (www.paintcodeapp.com) -->
    <g id="canvas1-group2">
        <path id="canvas1-bezier" stroke="none" fill="rgb(251, 8, 62)" d="M 260.5,14 L 260.5,14 260.5,14 96.9,72.27 121.85,288.31 260.5,365 260.5,365 260.5,365 399.15,288.31 424.1,72.27 260.5,14 Z M 260.5,14" />
        <path id="canvas1-bezier2" stroke="none" fill="rgb(195, 0, 47)" d="M 260.5,14 L 260.5,52.96 260.5,52.79 260.5,230.57 260.5,230.57 260.5,365 260.5,365 399.15,288.31 424.1,72.27 260.5,14 Z M 260.5,14" />
    </g>
    <path id="canvas1-bezier6" stroke="none" fill="rgb(195, 0, 47)" d="M 311.83,215.67 L 290.9,215.67 290.9,163.33 311.83,163.33 C 326.26,163.33 338,151.59 338,137.17 338,122.74 326.26,111 311.83,111 297.41,111 285.67,122.74 285.67,137.17 L 285.67,158.1 233.33,158.1 233.33,137.17 C 233.33,122.74 221.59,111 207.17,111 192.74,111 181,122.74 181,137.17 181,151.59 192.74,163.33 207.17,163.33 L 228.1,163.33 228.1,215.67 207.17,215.67 C 192.74,215.67 181,227.41 181,241.83 181,256.26 192.74,268 207.17,268 221.59,268 233.33,256.26 233.33,241.83 L 233.33,220.9 285.67,220.9 285.67,241.83 C 285.67,256.26 297.41,268 311.83,268 326.26,268 338,256.26 338,241.83 338,227.41 326.26,215.67 311.83,215.67 Z M 290.9,137.17 C 290.9,125.62 300.29,116.23 311.83,116.23 323.38,116.23 332.77,125.62 332.77,137.17 332.77,148.71 323.38,158.1 311.83,158.1 L 290.9,158.1 290.9,137.17 Z M 207.17,158.1 C 195.62,158.1 186.23,148.71 186.23,137.17 186.23,125.62 195.62,116.23 207.17,116.23 218.71,116.23 228.1,125.62 228.1,137.17 L 228.1,158.1 207.17,158.1 Z M 228.1,241.83 C 228.1,253.38 218.71,262.77 207.17,262.77 195.62,262.77 186.23,253.38 186.23,241.83 186.23,230.29 195.62,220.9 207.17,220.9 L 228.1,220.9 228.1,241.83 Z M 233.33,215.67 L 233.33,163.33 285.67,163.33 285.67,215.67 233.33,215.67 Z M 311.83,262.77 C 300.29,262.77 290.9,253.38 290.9,241.83 L 290.9,220.9 311.83,220.9 C 323.38,220.9 332.77,230.29 332.77,241.83 332.77,253.38 323.38,262.77 311.83,262.77 Z M 311.83,262.77" />
    <path id="canvas1-bezier7" stroke="none" fill="rgb(251, 8, 62)" d="M 285.67,158.1 L 285.67,137.17 C 285.67,122.74 297.41,111 311.83,111 326.26,111 338,122.74 338,137.17 338,151.59 326.26,163.33 311.83,163.33 L 290.9,163.33 290.9,215.67 311.83,215.67 C 326.26,215.67 338,227.41 338,241.83 338,256.26 326.26,268 311.83,268 297.41,268 285.67,256.26 285.67,241.83 L 285.67,220.9 285.67,158.1 Z M 156,137 C 156,139.58 89.06,181.98 156,137 L 156,137 Z M 311.83,158.1 C 323.38,158.1 332.77,148.71 332.77,137.17 332.77,125.62 323.38,116.23 311.83,116.23 300.29,116.23 290.9,125.62 290.9,137.17 L 290.9,158.1 311.83,158.1 Z M 290.9,241.83 C 290.9,253.38 300.29,262.77 311.83,262.77 323.38,262.77 332.77,253.38 332.77,241.83 332.77,230.29 323.38,220.9 311.83,220.9 L 290.9,220.9 290.9,241.83 Z M 285.67,215.67 L 285.67,163.33 285.67,215.67 Z M 186,242 C 186,242 186.23,230.29 186.23,241.83 186.23,253.38 186,242 186,242 Z M 186,242" />
    
    <text  fill="rgb(251, 8, 62)" font-family="Aldrich, sans-serif" font-size="15" x="275.54" y="279" text-anchor="middle"><tspan x="299.5" y="293">1.5 CLI</tspan></text>
    
    <text  fill="rgb(195, 0, 47)" font-family="Aldrich, sans-serif" font-size="14" x="184.21" y="279" text-anchor="middle"><tspan x="219.5" y="292">ANGULAR</tspan></text>
</svg>
